<?xml version="1.0"?>
<svg xmlns="http://www.w3.org/2000/svg" xmlns:xlink="http://www.w3.org/1999/xlink" version="1.1" id="Capa_1" x="0px" y="0px" viewBox="0 0 417.52 417.52" style="enable-background:new 0 0 417.52 417.52;" xml:space="preserve" width="512px" height="512px" class=""><g><g>
	<g>
		<path d="M384.36,113.04l-0.4-0.64c-0.392-0.862-0.934-1.647-1.6-2.32L274.28,1.92c-0.679-0.638-1.464-1.152-2.32-1.52h-0.8    c-0.673-0.225-1.372-0.359-2.08-0.4H48.76c-8.837,0-16,7.163-16,16v385.52c0,8.837,7.163,16,16,16h320c8.837,0,16-7.163,16-16    V115.6c0,0,0,0,0-0.48C384.719,114.412,384.585,113.713,384.36,113.04z M276.68,26.88l7.28,7.28l73.52,73.6h-80.8V26.88z     M368.76,401.52h-320v-386H260.6v92.4c0,8.837,7.163,16,16,16h92.16V401.52z" data-original="#000000" class="active-path" data-old_color="#000000" fill="#FF2D20"/>
	</g>
</g><g>
	<g>
		<path d="M319.88,167.52H97.64c-4.418,0-8,3.582-8,8s3.582,8,8,8h222.24c4.418,0,8-3.582,8-8S324.298,167.52,319.88,167.52z" data-original="#000000" class="active-path" data-old_color="#000000" fill="#FF2D20"/>
	</g>
</g><g>
	<g>
		<path d="M319.88,214.88H97.64c-4.418,0-8,3.582-8,8s3.582,8,8,8h222.24c4.418,0,8-3.582,8-8S324.298,214.88,319.88,214.88z" data-original="#000000" class="active-path" data-old_color="#000000" fill="#FF2D20"/>
	</g>
</g><g>
	<g>
		<path d="M319.88,262.32H97.64c-4.418,0-8,3.582-8,8s3.582,8,8,8h222.24c4.418,0,8-3.582,8-8S324.298,262.32,319.88,262.32z" data-original="#000000" class="active-path" data-old_color="#000000" fill="#FF2D20"/>
	</g>
</g><g>
	<g>
		<path d="M319.88,309.76H97.64c-4.418,0-8,3.582-8,8s3.582,8,8,8h222.24c4.418,0,8-3.582,8-8S324.298,309.76,319.88,309.76z" data-original="#000000" class="active-path" data-old_color="#000000" fill="#FF2D20"/>
	</g>
</g><g>
	<g>
		<path d="M319.88,357.2H97.64c-4.418,0-8,3.582-8,8s3.582,8,8,8h222.24c4.418,0,8-3.582,8-8S324.298,357.2,319.88,357.2z" data-original="#000000" class="active-path" data-old_color="#000000" fill="#FF2D20"/>
	</g>
</g></g> </svg>
